<!-- sprite.svg -->
<svg xmlns="http://www.w3.org/2000/svg" style="display: none;">
  <symbol id="search-icon" viewBox="0 0 50 50">
    <path d="M 21 3 C 11.621094 3 4 10.621094 4 20 C 4 29.378906 11.621094 37 21 37 C 24.710938 37 28.140625 35.804688 30.9375 33.78125 L 44.09375 46.90625 L 46.90625 44.09375 L 33.90625 31.0625 C 36.460938 28.085938 38 24.222656 38 20 C 38 10.621094 30.378906 3 21 3 Z M 21 5 C 29.296875 5 36 11.703125 36 20 C 36 28.296875 29.296875 35 21 35 C 12.703125 35 6 28.296875 6 20 C 6 11.703125 12.703125 5 21 5 Z"/>
  </symbol>
  <symbol id="profile-icon" viewBox="0 0 32 32">
    <path d="M11.78,11.28A4.462,4.462,0,0,1,16,6.61a4.462,4.462,0,0,1,4.22,4.67A4.45912,4.45912,0,0,1,16,15.94,4.45912,4.45912,0,0,1,11.78,11.28ZM30.04,16a13.91894,13.91894,0,0,1-2.39,7.82,1.43134,1.43134,0,0,1-.14.2,14.01332,14.01332,0,0,1-23.02,0,1.43134,1.43134,0,0,1-.14-.2A14.03633,14.03633,0,1,1,30.04,16ZM3.46,16a12.51091,12.51091,0,0,0,1.57,6.09C7.2,19.24,11.36,17.46,16,17.46s8.8,1.78,10.97,4.63A12.543,12.543,0,1,0,3.46,16Z"/>
  </symbol>
  <!-- Add more symbols here -->
</svg>

